<?xml version="1.0" encoding="utf-8"?>
<!-- Generator: Adobe Illustrator 24.1.1, SVG Export Plug-In . SVG Version: 6.00 Build 0)  -->
<svg version="1.1" id="Layer_1" xmlns="http://www.w3.org/2000/svg" xmlns:xlink="http://www.w3.org/1999/xlink" height="15" width="15" x="0px" y="0px"
	 viewBox="0 0 512 512" style="enable-background:new 0 0 512 512;" xml:space="preserve">
<style type="text/css">
	.st0{fill:#E0234E;}
</style>
<g>
	<path class="st0" d="M301.5,1c-3.7,0-7.1,0.8-10.3,1.9c6.7,4.5,10.4,10.4,12.3,17.2c0.1,0.9,0.4,1.6,0.5,2.5
		c0.1,0.8,0.3,1.6,0.3,2.4c0.5,11.6-3,13.1-5.6,20c-3.8,8.9-2.8,18.4,1.9,26c0.4,0.9,0.9,2,1.6,2.9c-5-33.5,22.9-38.5,28-48.9
		c0.4-9.1-7.1-15.2-13.1-19.4C311.4,2.1,306.2,1,301.5,1z M343.5,8.5c-0.5,3-0.1,2.2-0.3,3.8c-0.1,1.1-0.1,2.4-0.3,3.4
		c-0.3,1.1-0.5,2.1-0.9,3.2c-0.3,1.1-0.7,2.1-1.1,3.2c-0.5,1.1-0.9,2-1.5,3c-0.4,0.5-0.7,1.1-1.1,1.6c-0.3,0.4-0.5,0.8-0.8,1.2
		c-0.7,0.9-1.3,1.9-2,2.6c-0.8,0.8-1.5,1.7-2.4,2.4v0.1c-0.8,0.7-1.6,1.5-2.5,2.1c-2.8,2.1-5.9,3.7-8.9,5.7c-0.9,0.7-1.9,1.2-2.6,2
		c-0.9,0.7-1.7,1.3-2.5,2.1c-0.9,0.8-1.6,1.6-2.4,2.5c-0.7,0.8-1.5,1.7-2,2.6c-0.7,0.9-1.3,1.9-1.9,2.8c-0.5,1.1-0.9,2-1.5,3
		c-0.4,1.1-0.8,2-1.1,3c-0.4,1.2-0.7,2.2-0.9,3.3c-0.1,0.5-0.1,1.2-0.3,1.7c-0.1,0.5-0.1,1.1-0.3,1.6c0,1.1-0.1,2.2-0.1,3.3
		c0,0.8,0,1.6,0.1,2.4c0,1.1,0.1,2.1,0.4,3.3c0.1,1.1,0.4,2.1,0.7,3.2c0.4,1.1,0.7,2.1,1.1,3.2c0.3,0.7,0.7,1.3,0.9,1.9l-30.4-11.8
		c-5.2-1.5-10.2-2.8-15.3-4c-2.8-0.7-5.6-1.3-8.3-2c-7.9-1.6-16-2.8-24.1-3.6c-0.3,0-0.4-0.1-0.7-0.1c-7.9-0.8-15.7-1.2-23.7-1.2
		c-5.8,0-11.6,0.3-17.3,0.7c-8.1,0.5-16.1,1.6-24.2,2.9c-2,0.3-4,0.7-5.9,1.1c-4.1,0.8-8.1,1.7-11.9,2.6c-2,0.5-4,1.1-6,1.6
		c-2,0.8-3.8,1.7-5.7,2.5c-1.5,0.7-2.9,1.3-4.4,2c-0.3,0.1-0.5,0.1-0.7,0.3c-1.3,0.7-2.5,1.2-3.7,1.9c-0.4,0.1-0.7,0.3-0.9,0.4
		c-1.5,0.7-2.9,1.5-4.1,2.1c-0.9,0.4-1.9,0.9-2.6,1.3c-0.4,0.3-0.9,0.5-1.2,0.7c-1.2,0.7-2.4,1.3-3.4,2c-1.2,0.7-2.2,1.3-3.2,2
		s-1.9,1.2-2.6,1.9l-0.4,0.3c-0.8,0.5-1.7,1.2-2.5,1.9l-0.3,0.3c-0.7,0.5-1.3,1.1-2,1.6c-0.3,0.1-0.5,0.4-0.8,0.5
		c-0.7,0.5-1.3,1.2-2,1.7c-0.1,0.3-0.4,0.4-0.5,0.5c-0.8,0.8-1.6,1.5-2.4,2.2l-0.3,0.3c-0.8,0.7-1.6,1.5-2.4,2.2l-0.3,0.3
		c-0.7,0.7-1.3,1.3-2,2.1c-0.3,0.3-0.7,0.5-0.9,0.8c-0.7,0.8-1.5,1.6-2.2,2.4c-0.1,0.3-0.4,0.4-0.5,0.7c-1.1,1.1-2,2.1-3,3.2
		l-0.4,0.4c-2.1,2.2-4.4,4.5-6.7,6.5c-2.4,2.1-4.9,4.1-7.4,5.8c-2.6,1.9-5.2,3.4-7.9,5c-2.6,1.5-5.4,2.8-8.3,4
		c-2.8,1.2-5.7,2.2-8.6,3.2c-5.6,1.2-11.2,3.4-16.1,3.8c-1.1,0-2.2,0.3-3.3,0.4c-1.2,0.3-2.2,0.5-3.3,0.8c-1.1,0.4-2.1,0.8-3.2,1.2
		c-1.1,0.4-2.1,0.9-3.2,1.5c-0.9,0.7-2,1.2-2.9,1.9c-0.9,0.7-1.9,1.5-2.6,2.2c-0.9,0.7-1.9,1.6-2.6,2.4c-0.8,0.9-1.6,1.7-2.2,2.6
		c-0.7,1.1-1.5,2-2,3c-0.7,0.9-1.3,2-1.9,3c-0.5,1.2-1.1,2.2-1.5,3.4c-0.4,1.1-0.8,2.2-1.2,3.4c-0.3,1.1-0.5,2.1-0.7,3.2l-0.1,0.4
		c-0.3,1.2-0.3,2.8-0.4,3.6c-0.1,0.9-0.3,1.7-0.3,2.6c0,0.5,0,1.2,0.1,1.7c0.1,0.9,0.3,1.7,0.5,2.5s0.5,1.6,0.9,2.4v0.1
		c0.4,0.8,0.9,1.6,1.5,2.4c0.5,0.8,1.1,1.6,1.7,2.4c0.7,0.7,1.5,1.5,2.2,2.1c0.8,0.8,1.6,1.5,2.5,2.1c3.2,2.8,4,3.7,8.1,5.8
		c0.7,0.4,1.3,0.7,2.1,1.1l0.4,0.1c0,0.3,0,0.4,0.1,0.7c0.1,1.1,0.4,2.1,0.7,3.2c0.3,1.2,0.7,2.2,1.1,3.2c0.4,0.8,0.7,1.6,1.1,2.4
		c0.1,0.3,0.3,0.5,0.4,0.7c0.5,1.1,1.1,2,1.6,2.9c0.7,0.9,1.3,1.9,2,2.8c0.7,0.8,1.5,1.7,2.2,2.5c0.8,0.8,1.6,1.5,2.5,2.2l0.3,0.1
		c0.8,0.7,1.6,1.3,2.4,1.9c0.9,0.7,1.9,1.2,2.9,1.7c0.9,0.5,2,1.1,3,1.5c0.8,0.4,1.7,0.7,2.6,0.9c0.1,0.1,0.3,0.1,0.5,0.3
		c0.5,0.1,1.2,0.3,1.7,0.4c-0.4,7.1-0.5,13.9,0.5,16.3c1.2,2.6,7-5.4,12.8-14.7c-0.8,9.1-1.3,19.8,0,23c1.5,3.3,9.4-7,16.3-18.4
		c93.7-21.7,179.3,43.1,188.3,134.6c-1.7-14.3-19.3-22.2-27.4-20.2c-4,9.8-10.7,22.3-21.6,30.1c0.9-8.7,0.5-17.7-1.3-26.4
		c-2.9,12.2-8.6,23.5-16.4,33.3c-12.6,0.9-25.1-5.2-31.7-14.3c-0.5-0.4-0.7-1.2-1.1-1.7c-0.4-0.9-0.8-1.8-1.1-2.8
		c-0.4-0.9-0.7-1.9-0.8-2.8c-0.1-0.9-0.1-1.9-0.1-2.9c0-0.7,0-1.3,0-2c0.1-0.9,0.4-1.9,0.7-2.8c0.3-0.9,0.5-1.8,0.9-2.8
		c0.5-0.9,0.9-1.9,1.6-2.8c2.2-6.3,2.2-11.5-1.9-14.5c-0.8-0.5-1.6-0.9-2.5-1.3c-0.5-0.1-1.2-0.4-1.7-0.5c-0.4-0.1-0.7-0.3-1.1-0.4
		c-0.9-0.3-1.9-0.5-2.8-0.7c-0.9-0.3-1.9-0.4-2.8-0.4c-0.9-0.1-2-0.3-2.9-0.3c-0.7,0-1.3,0.1-2,0.1c-1.1,0-2,0.1-2.9,0.4
		c-0.9,0.1-1.9,0.3-2.8,0.5s-1.9,0.5-2.8,0.9c-0.9,0.4-1.7,0.8-2.6,1.2c-0.8,0.4-1.6,0.9-2.5,1.3c-30.8,20.1-12.4,67.2,8.6,80.8
		c-7.9,1.5-16,3.2-18.2,4.9l-0.3,0.3c5.7,3.4,11.6,6.3,17.9,8.9c8.5,2.8,17.5,5.3,21.4,6.3v0.1c11,2.2,22.1,3,33.3,2.4
		c58.6-4.1,106.6-48.7,115.3-107.4c0.3,1.2,0.5,2.2,0.8,3.4c0.4,2.4,0.9,4.9,1.2,7.4v0.1c0.3,1.2,0.4,2.4,0.5,3.4c0,0.3,0,0.4,0,0.5
		c0.1,1.2,0.3,2.4,0.3,3.4c0.1,1.5,0.3,2.9,0.3,4.4c0,0.7,0,1.3,0,2.1c0,0.7,0.1,1.5,0.1,2.1c0,0.8-0.1,1.6-0.1,2.4
		c0,0.7,0,1.3,0,1.9c0,0.9-0.1,1.7-0.1,2.6c0,0.5,0,1.1-0.1,1.7c0,0.9-0.1,1.9-0.1,2.9c-0.1,0.4-0.1,0.8-0.1,1.2
		c-0.1,1.1-0.3,2-0.4,3c0,0.4,0,0.8-0.1,1.2c-0.1,1.3-0.4,2.5-0.5,3.8v0.1v0.1c-0.3,1.2-0.5,2.5-0.8,3.7v0.4
		c-0.3,1.2-0.5,2.4-0.8,3.6l-0.1,0.5c-0.3,1.2-0.5,2.4-0.9,3.6v0.4c-0.4,1.3-0.8,2.5-1.1,3.7l-0.1,0.3c-0.4,1.3-0.8,2.6-1.2,4
		c-0.5,1.3-0.9,2.5-1.5,3.8s-0.9,2.6-1.5,3.8c-0.5,1.3-1.1,2.5-1.6,3.8h-0.1c-0.5,1.2-1.1,2.5-1.7,3.7c-0.1,0.4-0.3,0.7-0.4,0.9
		l-0.3,0.4c-8.6,17.3-21.3,32.5-37.2,44.4c-1.1,0.7-2.1,1.5-3.2,2.2c-0.3,0.3-0.7,0.4-0.9,0.7c-0.9,0.7-1.9,1.3-2.9,2l0.4,0.8h0.1
		c1.9-0.3,3.7-0.5,5.6-0.8h0.1c3.4-0.5,6.9-1.2,10.3-1.8c0.9-0.1,2-0.4,2.9-0.7c0.7-0.1,1.2-0.3,1.9-0.4c0.9-0.1,1.9-0.4,2.8-0.5
		c0.8-0.3,1.6-0.4,2.4-0.7c13.2-3.2,26-7.5,38.3-12.7c-21,28.7-49.2,51.8-82.1,67c15.2-1.1,30.4-3.6,45.1-7.8
		c53.3-15.7,98.1-51.6,125-99.8c-5.4,30.5-17.6,59.6-35.6,85c12.8-8.5,24.6-18.2,35.3-29.4c29.6-30.9,49.1-70.2,55.7-112.4
		c4.5,20.9,5.8,42.4,3.8,63.7c95.5-133.2,7.9-271.2-28.7-307.6c-0.1-0.3-0.3-0.4-0.3-0.7l-0.1,0.3l-0.1-0.3c0,1.6-0.1,3.2-0.3,4.8
		c-0.4,3-0.8,6-1.3,8.9c-0.7,2.9-1.5,5.8-2.2,8.7c-0.9,2.8-2,5.7-3.2,8.5c-1.2,2.6-2.5,5.4-4,8.1c-1.5,2.5-3,5.2-4.8,7.5
		c-1.7,2.5-3.6,4.9-5.4,7.1c-2,2.4-4.1,4.5-6.2,6.6c-1.3,1.2-2.5,2.2-3.8,3.3c-1.1,0.9-2,1.7-3,2.6c-2.4,1.9-4.8,3.6-7.4,5.2
		c-2.5,1.6-5.2,3.2-7.8,4.5c-2.8,1.3-5.6,2.5-8.3,3.7c-2.8,1.1-5.7,2-8.6,2.8c-2.9,0.8-6,1.5-8.9,2c-3,0.5-6.1,0.8-9,1.1
		c-2.1,0.1-4.2,0.3-6.3,0.3c-3,0-6.1-0.3-9-0.5c-3-0.3-6.1-0.7-9-1.3c-3-0.5-6-1.3-8.9-2.2h-0.1c2.9-0.3,5.8-0.5,8.7-1.1
		c3-0.5,6-1.2,8.9-2c2.9-0.8,5.8-1.7,8.6-2.8c2.9-1.1,5.7-2.4,8.3-3.7c2.8-1.3,5.3-2.8,7.9-4.4c2.5-1.7,5-3.4,7.4-5.3
		c2.4-1.9,4.6-3.8,6.7-6c2.2-2,4.2-4.2,6.2-6.5c2-2.4,3.8-4.8,5.6-7.1c0.3-0.4,0.5-0.9,0.8-1.3c1.3-2.1,2.6-4.2,3.8-6.3
		c1.5-2.6,2.8-5.3,4-8.1c1.2-2.8,2.2-5.6,3.2-8.5c0.9-2.8,1.6-5.7,2.2-8.6c0.5-3,1.1-6,1.3-8.9c0.3-3,0.5-6.1,0.5-9
		c0-2.1-0.1-4.2-0.3-6.3c-0.3-3-0.7-6-1.1-8.9c-0.5-3-1.2-6-2-8.9c-0.9-2.8-1.9-5.7-2.9-8.5c-1.1-2.8-2.4-5.6-3.7-8.2
		c-1.5-2.6-2.9-5.3-4.5-7.8c-1.7-2.5-3.4-4.9-5.3-7.3c-2-2.2-4-4.5-6.1-6.7c-1.1-1.1-2.2-2.2-3.4-3.3c-6-4.6-12.2-9-18.4-13
		c-0.9-0.5-1.7-0.9-2.6-1.3C351.7,11.3,347.6,9.9,343.5,8.5z"/>
</g>
</svg>
