<?xml version="1.0" encoding="UTF-8" standalone="no"?>
<svg width="20px" height="20px" viewBox="0 0 256 20" version="1.1" xmlns="http://www.w3.org/2000/svg" xmlns:xlink="http://www.w3.org/1999/xlink" preserveAspectRatio="xMidYMid">
    <defs>
        <linearGradient x1="49.9972467%" y1="-19.5160457%" x2="49.9972467%" y2="129.625092%" id="linearGradient-1">
            <stop stop-color="#0994DC" offset="0%"></stop>
            <stop stop-color="#66CEF5" offset="35.000601%"></stop>
            <stop stop-color="#66CEF5" offset="35.000601%"></stop>
            <stop stop-color="#127BCA" offset="84.616101%"></stop>
            <stop stop-color="#127BCA" offset="84.616101%"></stop>
            <stop stop-color="#127BCA" offset="100%"></stop>
        </linearGradient>
        <linearGradient x1="50.0007616%" y1="-19.5161868%" x2="50.0007616%" y2="129.624154%" id="linearGradient-2">
            <stop stop-color="#0E76BC" offset="0%"></stop>
            <stop stop-color="#36AEE8" offset="36.0001%"></stop>
            <stop stop-color="#36AEE8" offset="36.0001%"></stop>
            <stop stop-color="#00ADEF" offset="84.616101%"></stop>
            <stop stop-color="#00ADEF" offset="84.616101%"></stop>
            <stop stop-color="#00ADEF" offset="100%"></stop>
        </linearGradient>
        <linearGradient x1="49.9991979%" y1="110.921751%" x2="49.9991979%" y2="-6.21395776%" id="linearGradient-3">
            <stop stop-color="#1C63B7" offset="0%"></stop>
            <stop stop-color="#33BDF2" offset="50%"></stop>
            <stop stop-color="#33BDF2" stop-opacity="0.41960785" offset="100%"></stop>
        </linearGradient>
        <linearGradient x1="50.0009899%" y1="-19.5149993%" x2="50.0009899%" y2="129.627315%" id="linearGradient-4">
            <stop stop-color="#166AB8" offset="0%"></stop>
            <stop stop-color="#36AEE8" offset="39.999399%"></stop>
            <stop stop-color="#36AEE8" offset="39.999399%"></stop>
            <stop stop-color="#0798DD" offset="84.616101%"></stop>
            <stop stop-color="#0798DD" offset="84.616101%"></stop>
            <stop stop-color="#0798DD" offset="100%"></stop>
        </linearGradient>
        <linearGradient x1="49.9985422%" y1="-19.5211325%" x2="49.9985422%" y2="129.626892%" id="linearGradient-5">
            <stop stop-color="#124379" offset="0%"></stop>
            <stop stop-color="#1487CB" offset="38.9999%"></stop>
            <stop stop-color="#1487CB" offset="38.9999%"></stop>
            <stop stop-color="#165197" offset="78.022802%"></stop>
            <stop stop-color="#165197" offset="78.022802%"></stop>
            <stop stop-color="#165197" offset="100%"></stop>
        </linearGradient>
        <linearGradient x1="0.000304652977%" y1="50.000544%" x2="100.000291%" y2="50.000544%" id="linearGradient-6">
            <stop stop-color="#33BDF2" stop-opacity="0.69803923" offset="0%"></stop>
            <stop stop-color="#1DACD8" offset="100%"></stop>
        </linearGradient>
        <linearGradient x1="50.0095709%" y1="94.6864084%" x2="50.0095709%" y2="-3.02458407%" id="linearGradient-7">
            <stop stop-color="#136AB4" offset="0%"></stop>
            <stop stop-color="#59CAF5" stop-opacity="0.54901963" offset="60.000002%"></stop>
            <stop stop-color="#59CAF5" stop-opacity="0.23529412" offset="100%"></stop>
        </linearGradient>
        <linearGradient x1="-0.000760861053%" y1="49.999714%" x2="99.9992241%" y2="49.999714%" id="linearGradient-8">
            <stop stop-color="#05A1E6" stop-opacity="0.24705882" offset="0%"></stop>
            <stop stop-color="#05A1E6" offset="100%"></stop>
        </linearGradient>
        <linearGradient x1="49.9983236%" y1="124.313712%" x2="49.9983236%" y2="-9.42137278%" id="linearGradient-9">
            <stop stop-color="#318ED5" offset="0%"></stop>
            <stop stop-color="#38A7E4" offset="100%"></stop>
        </linearGradient>
        <linearGradient x1="49.99857%" y1="91.1999524%" x2="49.99857%" y2="-76.7854074%" id="linearGradient-10">
            <stop stop-color="#05A1E6" offset="0%"></stop>
            <stop stop-color="#05A1E6" stop-opacity="0.54901963" offset="100%"></stop>
        </linearGradient>
        <linearGradient x1="50.0000694%" y1="100.01049%" x2="50.0000694%" y2="0.0101898204%" id="linearGradient-11">
            <stop stop-color="#1959A6" offset="0%"></stop>
            <stop stop-color="#05A1E6" offset="50%"></stop>
            <stop stop-color="#05A1E6" offset="50%"></stop>
            <stop stop-color="#7EC5EA" offset="91.758698%"></stop>
            <stop stop-color="#7EC5EA" offset="100%"></stop>
        </linearGradient>
        <linearGradient x1="59.8041209%" y1="94.5677442%" x2="38.4710575%" y2="5.75513731%" id="linearGradient-12">
            <stop stop-color="#165096" offset="0%"></stop>
            <stop stop-color="#0D82CA" offset="100%"></stop>
        </linearGradient>
        <linearGradient x1="49.9946843%" y1="76.9980959%" x2="49.9946843%" y2="-3.29893613%" id="linearGradient-13">
            <stop stop-color="#05A1E6" offset="0%"></stop>
            <stop stop-color="#0495D6" offset="87.362701%"></stop>
            <stop stop-color="#0495D6" offset="100%"></stop>
        </linearGradient>
        <linearGradient x1="65.2631169%" y1="-4.16143813%" x2="34.2626975%" y2="105.843625%" id="linearGradient-14">
            <stop stop-color="#38A7E4" stop-opacity="0.32941177" offset="0%"></stop>
            <stop stop-color="#0E88D3" offset="96.153301%"></stop>
            <stop stop-color="#0E88D3" offset="96.153301%"></stop>
            <stop stop-color="#0E88D3" offset="100%"></stop>
        </linearGradient>
        <linearGradient x1="50.016714%" y1="-0.295776148%" x2="50.016714%" y2="101.881944%" id="linearGradient-15">
            <stop stop-color="#168CD4" offset="0%"></stop>
            <stop stop-color="#1C87CC" offset="50%"></stop>
            <stop stop-color="#154B8D" offset="100%"></stop>
        </linearGradient>
        <linearGradient x1="16.6738062%" y1="205.564966%" x2="87.8125992%" y2="-19.8362753%" id="linearGradient-16">
            <stop stop-color="#97D6EE" offset="0%"></stop>
            <stop stop-color="#55C1EA" offset="70.329303%"></stop>
            <stop stop-color="#55C1EA" offset="100%"></stop>
        </linearGradient>
        <linearGradient x1="6.89015912%" y1="6.30038251%" x2="75.7828966%" y2="116.770678%" id="linearGradient-17">
            <stop stop-color="#7ACCEC" offset="0%"></stop>
            <stop stop-color="#3FB7ED" offset="100%"></stop>
        </linearGradient>
        <linearGradient x1="49.9966533%" y1="6.36281892%" x2="49.9966533%" y2="127.96135%" id="linearGradient-18">
            <stop stop-color="#1DA7E7" offset="0%"></stop>
            <stop stop-color="#37ABE7" stop-opacity="0" offset="100%"></stop>
        </linearGradient>
    </defs>
	<g>
		<g transform="translate(0.810127, 0.000000)">
			<path d="M88.4994916,20.6885266 C97.6642916,48.7146127 101.136413,98.7106025 127.935806,98.7106025 L127.935806,98.7106025 C129.976514,98.7106025 132.037719,98.5109873 134.107107,98.1174278 L134.107107,98.1174278 C109.745142,92.4370633 106.857851,42.9849114 91.9920284,17.3755949 L91.9920284,17.3755949 C90.8264182,18.4349165 89.6690714,19.539119 88.4994916,20.6885266" fill="url(#linearGradient-1)"></path>
			<path d="M91.9920284,17.3755949 C106.857851,42.9849114 109.745142,92.4370633 134.107107,98.1174278 L134.107107,98.1174278 C136.021031,97.7657519 137.939087,97.2340658 139.861193,96.563362 L139.861193,96.563362 C117.993932,85.8485468 111.949416,37.8279696 95.0674309,14.7091443 L95.0674309,14.7091443 C94.0449701,15.5601013 93.0185397,16.4516456 91.9920284,17.3755949" fill="url(#linearGradient-2)"></path>
			<path d="M113.411208,2.14545823 C111.37455,2.14545823 109.309132,2.34499241 107.235856,2.73863291 C101.81295,3.76101266 96.3044132,6.09604051 90.7506714,9.62948861 C92.2677954,11.1262785 93.711279,12.8396962 95.0690511,14.7088203 C100.71693,10.0220759 106.327947,6.55829873 111.918631,4.47651646 C114.016454,3.69952405 116.106418,3.1148557 118.204241,2.73045063 C116.691087,2.34564051 115.096109,2.14545823 113.411208,2.14545823" fill="#14559A"></path>
			<path d="M156.93137,86.6867038 C159.168373,84.9079089 161.409507,82.9405975 163.654692,80.793762 C154.342611,52.8981873 151.009588,2.18669367 124.022003,2.18669367 C122.091714,2.18669367 120.145061,2.36662278 118.202459,2.72648101 C142.785264,8.84066835 145.934307,62.3249013 156.93137,86.6867038" fill="url(#linearGradient-3)"></path>
			<path d="M118.203269,2.72842532 C116.690114,2.34402025 115.095218,2.14383797 113.410236,2.14383797 L124.022894,2.18272405 C122.092525,2.18272405 120.145871,2.36265316 118.203269,2.72680506" fill="#3092C4"></path>
			<path d="M156.460038,92.6127797 C155.40493,91.6067646 154.403127,90.502562 153.417365,89.324719 C148.877821,92.5391392 144.354722,94.9765671 139.860383,96.563362 C141.459249,97.3446481 143.135968,97.9254278 144.915168,98.2852861 C146.293193,98.566643 147.720636,98.7106025 149.221395,98.7106025 C154.264028,98.7106025 158.251309,98.1135392 161.645659,96.4858329 C159.776859,95.4755241 158.063198,94.1668456 156.460038,92.6127797" fill="#1969BC"></path>
			<path d="M111.916687,4.48113418 C133.93536,15.9974886 135.849284,68.1485772 153.418337,89.324719 L153.418337,89.324719 C154.59618,88.4946633 155.761709,87.6152709 156.927238,86.6867038 L156.927238,86.6867038 C145.930256,62.3249013 142.785264,8.83637468 118.20659,2.72648101 L118.20659,2.72648101 C116.108606,3.11906835 114.014671,3.70017215 111.916687,4.48113418" fill="url(#linearGradient-4)"></path>
			<path d="M95.0674309,14.7091443 C111.949416,37.8279696 117.993932,85.8485468 139.861193,96.563362 L139.861193,96.563362 C144.355694,94.9765671 148.878874,92.5391392 153.418337,89.324719 L153.418337,89.324719 C135.849284,68.1485772 133.93536,15.9974886 111.916687,4.48113418 L111.916687,4.48113418 C106.326165,6.55862278 100.715228,10.0224 95.0674309,14.7091443" fill="url(#linearGradient-5)"></path>
			<path d="M77.698317,20.0135291 C75.0522815,25.996881 72.3490511,33.8610228 69.0814056,44.1260557 C75.5798359,34.9691949 82.0578511,27.0804253 88.4990056,20.6885266 C87.6115929,17.9605873 86.658722,15.4455494 85.6322106,13.2041722 C82.9984891,15.2204962 80.3442714,17.4903899 77.698317,20.0135291" fill="url(#linearGradient-6)"></path>
			<path d="M87.9785803,11.4790076 C87.2015068,12.0351595 86.4205448,12.6037873 85.6353701,13.2048203 C86.6617195,15.4459544 87.6104587,17.9612354 88.4981144,20.6888506 C89.6674511,19.5437367 90.8288486,18.4355646 91.9903271,17.376243 C90.7431372,15.2332152 89.4180942,13.2538329 87.9785803,11.4790076" fill="#2B74B1"></path>
			<path d="M90.7506714,9.62948861 C89.826398,10.214481 88.9064182,10.8317975 87.9779322,11.4779544 C89.4174461,13.2528608 90.7424891,15.232243 91.9939727,17.3794835 C93.0205651,16.4509975 94.0469144,15.5554835 95.0693752,14.7088203 C93.711603,12.8400203 92.2681195,11.1262785 90.7506714,9.62948861" fill="#125A9E"></path>
			<path d="M240.936717,0.0112607595 C228.483613,48.0357266 202.473527,86.6091747 180.667593,96.3343392 L180.626276,96.3343392 C180.229638,96.5142684 179.83697,96.6779139 179.448514,96.8371848 C179.395046,96.8695899 179.346438,96.8736405 179.305203,96.8930835 C179.190651,96.9392608 179.084363,96.9749063 178.969811,97.0206785 C178.916342,97.0530835 178.867735,97.0636152 178.818722,97.0830582 C178.634823,97.1486785 178.454732,97.2041722 178.274803,97.2761114 C178.197031,97.3085165 178.123633,97.3287696 178.049669,97.3546937 C177.967846,97.3870987 177.873628,97.4170734 177.779735,97.4430785 C177.697993,97.4754835 177.612282,97.4989772 177.517983,97.5346228 C177.440211,97.5670278 177.358388,97.5808 177.285071,97.6132051 C177.125395,97.6593823 176.978519,97.6982684 176.818844,97.753843 C176.753223,97.753843 176.692221,97.7894886 176.62255,97.8065013 C176.524363,97.8389063 176.41378,97.8624 176.307492,97.8915646 C176.23377,97.9239696 176.172687,97.9345013 176.094833,97.9507038 C175.984251,97.9831089 175.861517,98.0130835 175.751259,98.0390886 C175.604059,98.0714937 175.473223,98.1014684 175.334125,98.1307139 C176.319725,98.4947848 177.346236,98.6786835 178.45457,98.6786835 C199.131755,98.6786835 219.980363,61.6226835 254.476606,1.84741111e-13 L240.931775,1.84741111e-13 L240.936717,0.0112607595 Z" fill="url(#linearGradient-7)"></path>
			<path d="M64.5910359,4.09437975 C64.603998,4.09437975 64.6202005,4.06197468 64.6283018,4.06197468 C64.6445043,4.06197468 64.6696182,4.06197468 64.6777195,4.02956962 L64.7036435,4.02956962 C64.8181144,3.99068354 64.9244841,3.94450633 65.0389549,3.90197468 C65.0681195,3.90197468 65.0835119,3.90197468 65.1045752,3.86956962 C65.1337397,3.86956962 65.1620942,3.83716456 65.1906106,3.83311392 C65.3133448,3.79422785 65.435998,3.74805063 65.5505499,3.70551899 L65.5699929,3.70551899 C65.8441397,3.62377722 66.0975473,3.52234937 66.3633499,3.42748354 C66.4006157,3.42748354 66.4370714,3.39507848 66.4817904,3.39507848 C66.5923727,3.35943291 66.7069246,3.31973671 66.8212334,3.29365063 C66.8747018,3.26124557 66.927603,3.26124557 66.9766157,3.24423291 C67.0950562,3.20858734 67.2099322,3.16889114 67.3201904,3.14280506 C67.3696081,3.14280506 67.4144081,3.1104 67.4510258,3.10715949 C67.8313803,3.00249114 68.207603,2.9043038 68.5879575,2.81267848 C68.6414258,2.81267848 68.6861448,2.78027342 68.7433397,2.77703291 C68.853598,2.74462785 68.956079,2.72761519 69.0746005,2.71141266 C69.1240182,2.67900759 69.1809701,2.67900759 69.2382461,2.66199494 C69.3485043,2.62958987 69.4547929,2.62634937 69.5735575,2.59961519 L69.6513296,2.59961519 C69.8803524,2.55343797 70.1135068,2.5145519 70.3425296,2.47202025 L70.4815473,2.47202025 C70.5918056,2.43961519 70.6899929,2.43637468 70.8005752,2.41612152 C70.8613347,2.41612152 70.9232284,2.38371646 70.9805043,2.38371646 C71.0825803,2.38371646 71.1849803,2.35131139 71.2870562,2.33753924 C71.3405246,2.33753924 71.3933448,2.33753924 71.4549144,2.30513418 C71.6960081,2.27272911 71.9456081,2.25976709 72.1991777,2.23951392 C71.4835119,2.17065316 70.7473499,2.12496203 69.9989549,2.12496203 C46.7125792,2.12496203 14.6293792,45.3318481 0.176599494,101.286238 L2.96164456,101.286238 C7.58702177,93.0376101 11.7420962,85.2345519 15.5413711,77.9098734 C25.6632223,38.2773468 46.2790805,11.2487696 64.5924942,4.08797975" fill="url(#linearGradient-8)"></path>
			<path d="M77.69856,20.0135291 C80.3446765,17.4903899 82.9987322,15.2204962 85.6324537,13.2044962 C85.0314208,11.8876354 84.4098106,10.668881 83.7429954,9.55228354 C81.6124435,12.1369114 79.6657904,15.5477063 77.69856,20.0135291" fill="#0D82CA"></path>
			<path d="M79.6115119,4.42191392 C81.1328486,5.69786329 82.4945094,7.45243544 83.7420233,9.5545519 C84.1346106,9.07195949 84.5314916,8.62606582 84.9444132,8.20893165 C83.2146309,6.59362025 81.3455068,5.26857722 79.3170309,4.2707443 C79.3988537,4.31611139 79.4805954,4.35256709 79.5656587,4.38853671 C79.5656587,4.38853671 79.5980638,4.42094177 79.6118359,4.42094177" fill="#0D82CA"></path>
			<path d="M15.5403261,77.9146532 C36.7737195,36.9976709 46.8342278,11.1020557 64.591441,4.09243544 L64.591441,4.09243544 C46.2821266,11.257762 25.6621772,38.2860152 15.5403261,77.9146532" fill="url(#linearGradient-9)"></path>
			<path d="M84.9430359,8.20787848 C84.5301954,8.62930633 84.1376081,9.07098734 83.7407271,9.55357975 C84.4074613,10.6698532 85.0288284,11.884638 85.634398,13.2054684 C86.4195727,12.6044354 87.2005347,12.0358076 87.9776081,11.4796557 C87.016717,10.2936304 86.0024385,9.19364051 84.9430359,8.20787848" fill="#127BCA"></path>
			<path d="M25.179601,101.107119 L25.179601,101.107119 C25.0487332,101.139524 24.9178653,101.139524 24.7951716,101.153296 L24.7215311,101.153296 C24.6109489,101.153296 24.4964375,101.185701 24.3943615,101.185701 L24.3410552,101.185701 C24.0753904,101.218106 23.8134927,101.218106 23.5599311,101.238359 L23.4781408,101.238359 C44.9691868,100.637003 54.7924739,89.8769823 59.6673296,74.2709468 C63.3725246,62.4397772 66.415279,52.4731949 69.0817296,44.1100152 C60.0804132,56.7797468 51.0381853,71.8826127 41.9469448,88.8015392 C37.5628476,96.9562734 30.8967453,100.362775 25.1794309,101.091078" fill="url(#linearGradient-10)"></path>
			<path d="M25.179601,101.098937 L25.179601,101.098937 C30.8969154,100.370633 37.5630258,96.9681013 41.9471149,88.8093975 L41.9471149,88.8093975 C51.0383473,71.8946835 60.0846258,56.7876051 69.07776,44.1178734 L69.07776,44.1178734 C72.3494562,33.8486278 75.0486359,25.9886987 77.698722,20.0053468 L77.698722,20.0053468 C59.7738613,37.0673418 41.7794349,65.4373266 25.179601,101.090754" fill="url(#linearGradient-11)"></path>
			<path d="M15.5393134,77.9156253 C11.7402005,85.2403038 7.58513418,93.043362 2.95958684,101.29199 L11.0613225,101.29199 C12.1328122,93.1002329 13.654157,85.2890734 15.5393134,77.9195139" fill="#05A1E6"></path>
			<path d="M71.4538613,2.32603544 C71.388241,2.32603544 71.3393094,2.35844051 71.2821144,2.35844051 L71.2821144,2.35844051 C71.1839271,2.39084557 71.0815271,2.39084557 70.9794511,2.40137722 L70.9794511,2.40137722 C70.9186916,2.40137722 70.8610106,2.40137722 70.799522,2.43378228 L70.799522,2.43378228 C70.6889397,2.46618734 70.5868638,2.46942785 70.4804942,2.48968101 L70.4804942,2.48968101 C70.4310765,2.48968101 70.3823878,2.48968101 70.3414765,2.52208608 L70.3414765,2.52208608 C70.10816,2.56097215 69.8792992,2.60390886 69.6502765,2.64311899 L69.6502765,2.64311899 L69.5725043,2.64311899 L69.5725043,2.64311899 C69.4540638,2.67552405 69.3474511,2.69253671 69.2371929,2.70873924 L69.2371929,2.70873924 C69.1796739,2.7411443 69.122641,2.7411443 69.0693347,2.75410633 L69.0693347,2.75410633 C68.9590765,2.78651139 68.8484942,2.80028354 68.7422056,2.81972658 L68.7422056,2.81972658 C68.6846866,2.85213165 68.6401296,2.85213165 68.5867423,2.85537215 L68.5867423,2.85537215 C68.2064689,2.94699747 67.8301651,3.04518481 67.4498106,3.14985316 L67.4498106,3.14985316 C67.4093043,3.14985316 67.3680689,3.18225823 67.3189752,3.18873924 L67.3189752,3.18873924 C67.2045043,3.2211443 67.093922,3.25435949 66.9754815,3.29016709 L66.9754815,3.29016709 C66.9260638,3.32257215 66.8691119,3.32257215 66.8200182,3.33553418 L66.8200182,3.33553418 C66.7055473,3.36793924 66.5909954,3.40115443 66.4805752,3.43696203 L66.4805752,3.43696203 C66.4360182,3.43696203 66.3988334,3.46936709 66.357922,3.46936709 L66.357922,3.46936709 C66.0961701,3.56747342 65.8385499,3.66566076 65.5686157,3.74748354 L65.5686157,3.74748354 L65.5686157,3.74748354 L65.5686157,3.74748354 C65.4541448,3.78312911 65.3314106,3.82922532 65.2087575,3.87175696 L65.2087575,3.87175696 C65.1593397,3.90416203 65.1145397,3.91145316 65.0575878,3.93413671 L65.0575878,3.93413671 C64.9430359,3.96978228 64.8285651,4.01595949 64.7221954,4.05849114 L64.7221954,4.05849114 C64.6816891,4.0908962 64.6404537,4.09413671 64.6119372,4.11114937 L64.6119372,4.11114937 C46.8547646,11.1207696 36.7942562,37.0163848 15.5608628,77.9333671 L15.5608628,77.9333671 C13.6755362,85.3029266 12.1501003,93.1140861 11.0827099,101.305519 L11.0827099,101.305519 L12.2196253,101.305519 C15.4218127,101.305519 16.3256223,101.273114 20.0103858,101.273114 L20.0103858,101.273114 L20.1985053,101.273114 L20.7465154,101.273114 L20.934643,101.273114 L20.9879494,101.273114 L21.1760689,101.273114 L21.282398,101.273114 L21.3560385,101.273114 L21.5032628,101.273114 L21.9613084,101.273114 L22.4193458,101.273114 L22.8037671,101.273114 L22.9058511,101.273114 L23.580638,101.273114 L23.580638,101.273114 C23.8341914,101.240709 24.0959352,101.240709 24.361762,101.220456 L24.361762,101.220456 L24.4108557,101.220456 L24.4108557,101.220456 C24.521438,101.220456 24.6316962,101.188051 24.7380253,101.188051 L24.7380253,101.188051 L24.8155544,101.188051 L24.8155544,101.188051 C24.9339868,101.188051 25.0691078,101.155646 25.1999757,101.141873 L25.1999757,101.141873 C41.7998177,65.4884456 59.7941954,37.1184608 77.7190562,20.0564658 L77.7190562,20.0564658 C79.6902562,15.590643 81.6328587,12.1798481 83.759522,9.59943291 L83.759522,9.59943291 C82.5162208,7.49739747 81.154398,5.7388557 79.6330613,4.46258228 L79.6330613,4.46258228 C79.6330613,4.46258228 79.5917448,4.46258228 79.5885043,4.43017722 L79.5885043,4.43017722 C79.5024689,4.39453165 79.4210511,4.35159494 79.3350157,4.3091443 L79.3350157,4.3091443 C79.2488992,4.26296709 79.1753397,4.22732152 79.0856587,4.18154937 L79.0856587,4.18154937 C79.0078866,4.1491443 78.9178815,4.10620759 78.8402714,4.06375696 L78.8402714,4.06375696 C78.7339828,4.0313519 78.6479473,3.98517468 78.5540537,3.94264304 L78.5540537,3.94264304 C78.4762815,3.91023797 78.4067727,3.87702278 78.3289195,3.84453671 L78.3289195,3.84453671 C78.1692435,3.78215696 78.0099727,3.71694177 77.858641,3.64824304 L77.858641,3.64824304 C77.7889701,3.61583797 77.7238359,3.59882532 77.6580537,3.57290127 L77.6580537,3.57290127 C77.5477954,3.53320506 77.4208486,3.48127595 77.3063777,3.43218228 L77.3063777,3.43218228 C77.2488587,3.39977722 77.1836435,3.3932962 77.1182663,3.36980253 L77.1182663,3.36980253 C76.9507322,3.3139038 76.7870056,3.25533165 76.6315423,3.20291646 L76.6315423,3.20291646 L76.5910359,3.20291646 L76.5910359,3.20291646 C76.4028435,3.14053671 76.2188638,3.09500759 76.0266208,3.04259241 L76.0266208,3.04259241 C75.9820638,3.01018734 75.944798,3.01018734 75.899998,3.00370633 L75.899998,3.00370633 C75.7321397,2.95752911 75.5849397,2.91208101 75.4255878,2.86954937 L75.4255878,2.86954937 C75.3850815,2.86954937 75.3478157,2.8371443 75.3153296,2.8371443 L75.3153296,2.8371443 C74.9309246,2.73571646 74.5342056,2.65397468 74.1334359,2.57871392 L74.1334359,2.57871392 C74.0921195,2.57871392 74.0516942,2.54630886 74.0107828,2.54630886 L74.0107828,2.54630886 C73.8390359,2.5139038 73.6713397,2.48392911 73.4995929,2.46448608 L73.4995929,2.46448608 C73.4582765,2.43208101 73.4339727,2.43208101 73.397517,2.43208101 L73.397517,2.43208101 C73.193041,2.39967595 72.9926157,2.37618228 72.7921904,2.35349873 L72.7921904,2.35349873 L72.6859018,2.35349873 L72.6859018,2.35349873 C72.5223372,2.32109367 72.3711676,2.31785316 72.2196739,2.30084051 L72.2196739,2.30084051 C71.9618916,2.33324557 71.7166663,2.34701772 71.4753296,2.36970127" fill="url(#linearGradient-12)"></path>
			<path d="M192.294449,26.5978329 C188.208899,39.6846987 184.900342,50.4813367 182.021314,59.3640506 L182.021314,59.3640506 C193.230955,43.9379443 204.27298,24.5324152 214.787613,2.13792405 L214.787613,2.13792405 C202.522621,5.98999494 195.979228,14.8075747 192.294449,26.5978329" fill="url(#linearGradient-13)"></path>
			<path d="M182.377041,95.5164354 C181.804525,95.8075949 181.232008,96.0847392 180.667593,96.3343392 C202.473527,86.6091747 228.483613,48.0357266 240.936717,0.0112607595 L238.413254,0.0112607595 C209.802175,51.1193114 200.600514,85.3332253 182.377041,95.5164354" fill="url(#linearGradient-14)"></path>
			<path d="M168.138094,91.2226025 C172.882033,85.4317367 176.74658,75.5881316 182.02253,59.3643747 C175.936859,67.7235848 169.810925,74.9092456 163.680373,80.7695392 C163.680373,80.8019443 163.680373,80.8019443 163.647968,80.8221975 C164.985487,84.8300557 166.453436,88.3673924 168.126266,91.2219544" fill="#079AE1"></path>
			<path d="M168.138094,91.2226025 C166.52254,93.1938835 164.813335,94.6948861 162.911482,95.8072709 C162.494347,96.0494177 162.073325,96.2774684 161.643714,96.486157 C163.651937,97.5697823 165.843654,98.2937924 168.297365,98.5839797 L168.297365,98.5839797 C168.65698,98.6196253 169.01295,98.6528405 169.385284,98.6788456 L169.450904,98.6788456 C169.61779,98.6788456 169.794479,98.6788456 169.974408,98.7112506 L170.046509,98.7112506 L170.582408,98.7112506 L171.159218,98.7112506 L171.339228,98.7112506 L171.74818,98.7112506 C171.813801,98.7112506 171.882256,98.7112506 171.947714,98.6788456 C172.075309,98.6788456 172.209466,98.6788456 172.340302,98.6464405 L172.386479,98.6464405 L172.533679,98.6464405 C172.667836,98.6464405 172.815036,98.6140354 172.958995,98.6002633 L172.991401,98.6002633 C173.034337,98.6002633 173.079704,98.5678582 173.122236,98.5678582 C173.272757,98.5354532 173.429841,98.521681 173.576393,98.4989975 L173.71055,98.4989975 C173.877355,98.4665924 174.049831,98.4463392 174.221578,98.4139342 L174.253983,98.4139342 L174.303401,98.4139342 C174.646975,98.3483139 174.982287,98.2830987 175.321568,98.1980354 C172.507917,97.1673924 170.152312,94.7381468 168.123836,91.2783392" fill="#1969BC"></path>
			<path d="M127.936292,98.7112506 C129.977163,98.7112506 132.038368,98.5117165 134.107674,98.1141873 C136.021679,97.7667241 137.939573,97.2347139 139.861679,96.5640101 C141.460869,97.3452962 143.137588,97.9260759 144.912494,98.2859342 C146.290601,98.5672911 147.721932,98.7112506 149.223016,98.7112506 L127.936292,98.7112506 L127.936292,98.7112506 Z" fill="#1E5CB3"></path>
			<path d="M149.22334,98.7112506 C154.26176,98.7112506 158.253254,98.1141873 161.643714,96.486481 C163.651613,97.5701063 165.843654,98.2941165 168.297365,98.5846278 L168.297365,98.5846278 C168.657304,98.6202734 169.013274,98.6534886 169.385284,98.6794937 L169.450904,98.6794937 C169.61779,98.6794937 169.794479,98.6794937 169.974408,98.7118987 L170.04975,98.7118987 L170.585649,98.7118987 L149.208919,98.7118987 L149.22334,98.7112506 Z" fill="#1E5CB3"></path>
			<path d="M170.598368,98.7112506 L171.179147,98.7112506 L171.359076,98.7112506 L171.76414,98.7112506 C171.833001,98.7112506 171.898216,98.7112506 171.963674,98.6788456 C172.091269,98.6788456 172.225426,98.6788456 172.360555,98.6464405 L172.403492,98.6464405 L172.554013,98.6464405 C172.688089,98.6464405 172.83537,98.6140354 172.97536,98.6010734 L173.011006,98.6010734 C173.053942,98.6010734 173.096069,98.5686684 173.138601,98.5686684 C173.289122,98.5362633 173.446206,98.5233013 173.592433,98.4998076 C173.641851,98.4998076 173.680737,98.4998076 173.733071,98.4674025 C173.899957,98.4349975 174.072676,98.4179848 174.244504,98.3856608 L174.276909,98.3856608 L174.326327,98.3856608 C174.669902,98.3200405 175.005213,98.2547443 175.344494,98.169681 L175.344494,98.169681 C176.329932,98.5335089 177.356606,98.7177316 178.464697,98.7177316 L170.604444,98.7501367 L170.598368,98.7112506 Z" fill="#1D60B5"></path>
			<path d="M163.661092,80.8228456 L163.661092,80.7904405 C161.415988,82.937357 159.174854,84.9046684 156.937689,86.6834633 C155.768028,87.6119494 154.602661,88.4910987 153.424899,89.3214785 C154.410337,90.4992405 155.412464,91.603443 156.467573,92.6095392 C158.070732,94.163281 159.784069,95.4722835 161.653193,96.4822684 C162.078509,96.2728506 162.503826,96.0444759 162.916747,95.8033823 C164.822489,94.6909975 166.532018,93.190238 168.147573,91.219038 C166.474742,88.3644759 165.006712,84.8267342 163.669274,80.818957" fill="#175FAB"></path>
			<path d="M230.422165,0.0112607595 L219.813638,0.0112607595 L218.758449,0.0112607595 L218.758449,0.0112607595 L217.760616,0.0112607595 L217.760616,0.0112607595 L217.72173,0.0112607595 C217.034661,0.0436658228 216.368251,0.0671594937 215.709618,0.109448101 L215.709618,0.109448101 C215.398854,0.776263291 215.079826,1.44299747 214.77295,2.11370127 L214.77295,2.11370127 C204.258641,24.5081924 193.216616,43.9137215 182.006975,59.3398278 L182.006975,59.3398278 C176.735401,75.5632608 172.866641,85.4071899 168.122621,91.1981367 L168.122621,91.1981367 C170.151097,94.6579443 172.510833,97.0910785 175.316302,98.1217215 L175.316302,98.1217215 C175.398125,98.0893165 175.463502,98.0893165 175.537142,98.0723038 L175.537142,98.0723038 L175.582509,98.0723038 L175.582509,98.0723038 C175.631927,98.0723038 175.684585,98.0398987 175.737973,98.0398987 L175.737973,98.0398987 C175.852444,98.0074937 175.975178,97.9872405 176.089649,97.9515949 L176.089649,97.9515949 C176.16337,97.9191899 176.224454,97.9159494 176.298418,97.8924557 L176.298418,97.8924557 C176.404707,97.8600506 176.514965,97.836557 176.613152,97.8106329 L176.613152,97.8106329 C176.678773,97.7782278 176.743988,97.7676962 176.809446,97.7547342 L176.809446,97.7547342 C176.973011,97.7020759 177.120211,97.6631089 177.275674,97.6140152 L177.275674,97.6140152 C177.349395,97.5816101 177.427168,97.5548759 177.508909,97.5354329 L177.508909,97.5354329 C177.598914,97.5030278 177.688838,97.4795342 177.770661,97.4405671 L177.770661,97.4405671 C177.864879,97.408162 177.958773,97.3911494 178.040595,97.3555038 L178.040595,97.3555038 C178.114317,97.3230987 178.191765,97.3028456 178.261436,97.273681 L178.261436,97.273681 C178.445254,97.2080608 178.625426,97.1526481 178.809406,97.0806278 L178.809406,97.0806278 C178.858823,97.0806278 178.907593,97.0352608 178.960899,97.0247291 L178.960899,97.0247291 C179.071157,96.9785519 179.185709,96.9429063 179.296292,96.8938127 L179.296292,96.8938127 C179.336798,96.8614076 179.386216,96.8581671 179.439198,96.8411544 L179.439198,96.8411544 C179.823684,96.6808304 180.220322,96.5172658 180.617041,96.3383089 L180.617041,96.3383089 L180.658357,96.3383089 L180.658357,96.3383089 C181.222692,96.089681 181.795289,95.8105924 182.363755,95.5204051 L182.363755,95.5204051 C200.591279,85.3371949 209.793102,51.123281 238.40418,0.0152303797 L238.40418,0.0152303797 L230.413011,0.0152303797 L230.422165,0.0112607595 Z" fill="url(#linearGradient-15)"></path>
			<path d="M72.1990157,2.25701266 C72.2443828,2.25701266 72.2850511,2.25701266 72.3298511,2.28941772 C72.4401094,2.28941772 72.5506916,2.28941772 72.6611119,2.32506329 L72.7716942,2.32506329 C72.9719575,2.35746835 73.1724638,2.37448101 73.3769397,2.40364557 C73.4142056,2.40364557 73.4466106,2.40364557 73.4790157,2.43605063 C73.6465499,2.4684557 73.8184587,2.49518987 73.9902056,2.52111392 C74.0274714,2.52111392 74.076322,2.55351899 74.1171524,2.55351899 C74.5098208,2.63210127 74.9105904,2.71384304 75.2949954,2.81527089 C75.3314511,2.81527089 75.368717,2.84767595 75.4013651,2.84767595 C75.5649296,2.88656203 75.7121296,2.93597975 75.8756942,2.9817519 C75.9251119,2.9817519 75.9614056,3.01415696 76.0066106,3.0214481 C76.1989347,3.07086582 76.3787828,3.11963544 76.5668942,3.18177215 C76.5749954,3.18177215 76.5863372,3.18177215 76.6082106,3.21417722 C76.7674815,3.26278481 76.9311271,3.32540759 77.0989043,3.38098228 C77.1645246,3.41338734 77.2255271,3.42715949 77.2870157,3.44336203 C77.4015676,3.49277975 77.5285144,3.54146835 77.6387727,3.58732152 C77.7043929,3.58732152 77.7696081,3.63268861 77.8389549,3.65618228 C77.9901246,3.72504304 78.1498005,3.78701772 78.3051828,3.85247595 C78.3870056,3.88488101 78.4563524,3.92133671 78.5342056,3.95058228 C78.6242106,3.99675949 78.7181043,4.03896709 78.8162916,4.0716962 C78.8980334,4.11058228 78.9880385,4.15343797 79.0655676,4.18940759 C79.151603,4.23558481 79.2331018,4.27123038 79.3151676,4.31700253 C81.3436435,5.31491646 83.2126056,6.64417215 84.9425499,8.25551392 C85.5805246,7.58481013 86.2470967,6.98345316 86.9382967,6.44366582 C83.1553296,3.76085063 78.8694359,2.23133165 73.9250714,2.23133165 C73.3524739,2.23133165 72.7799575,2.26373671 72.1992587,2.30667342" fill="#7DCBEC"></path>
			<path d="M84.943117,8.20787848 C86.0023575,9.19331646 87.0165549,10.2936304 87.9776081,11.4796557 C88.9059322,10.8334987 89.8261549,10.2118076 90.7504284,9.63110886 C89.5398562,8.42053671 88.2639068,7.33269873 86.9347322,6.39603038 C86.2436132,6.93192911 85.5810916,7.53717468 84.943117,8.20787848" fill="#5EC5ED"></path>
			<path d="M72.1980425,6.28463137 C72.778771,6.33370702 73.3513202,6.3541552 73.9238694,6.3541552 C78.8682407,6.3541552 83.1541803,4.82463093 86.9370947,2.14591862 C90.9285805,5.29493919 95.7543523,6.39505157 102.457267,6.39505157 L69.9978178,6.39505157 C70.7462214,6.39505157 71.4782664,6.35006557 72.1980425,6.28463137" fill="url(#linearGradient-16)" transform="translate(86.227543, 4.270485) scale(1, -1) translate(-86.227543, -4.270485) "></path>
			<path d="M102.457267,9.62995452 C95.7543523,9.62995452 90.9285805,8.52984214 86.9370947,5.38082157 C88.2621371,4.44429467 89.5381039,3.35645121 90.7486364,2.14591862 C96.3064533,5.67936508 101.811105,8.0186375 107.238053,9.04104678 C109.30741,9.4295623 111.372676,9.62995452 113.409316,9.62995452 L102.457267,9.62995452 L102.457267,9.62995452 Z" fill="url(#linearGradient-17)" transform="translate(100.173205, 5.887937) scale(1, -1) translate(-100.173205, -5.887937) "></path>
			<path d="M182.021314,59.3722329 C184.904474,50.4813367 188.204768,39.6889924 192.298499,26.5978329 C195.987411,14.803362 202.51857,5.98610633 214.783319,2.13792405 C215.107289,1.47929114 215.413193,0.800405063 215.728251,0.133670886 C195.733841,1.33209114 186.389031,11.5028253 181.685922,26.5651848 C173.461679,52.8614886 168.480454,69.907119 163.68337,80.7692152 C169.809628,74.9128101 175.935887,67.7232608 182.021314,59.3722329" fill="url(#linearGradient-18)"></path>
			<path d="M211.354621,91.7061671 L209.08894,91.7061671 L209.08894,98.7485165 L208.164666,98.7485165 L208.164666,91.7061671 L205.890884,91.7061671 L205.890884,90.8680101 L211.354621,90.8680101 L211.354621,91.7061671 L211.354621,91.7061671 Z" fill="#000000"></path>
			<path d="M220.631866,98.7472203 L219.711887,98.7472203 L219.711887,93.4552304 C219.711887,93.0380962 219.744292,92.5270684 219.787228,91.9257114 L219.787228,91.9257114 C219.692282,92.2856506 219.61378,92.5352506 219.541841,92.6946025 L216.859026,98.7472203 L216.409163,98.7472203 L213.718165,92.7397266 C213.639583,92.5728405 213.561163,92.3020152 213.476099,91.9257114 L213.443694,91.9257114 C213.476099,92.243119 213.486631,92.7560911 213.486631,93.4677063 L213.486631,98.7472203 L212.603269,98.7472203 L212.603269,90.8667139 L213.821942,90.8667139 L216.238793,96.3670684 C216.421963,96.7803139 216.536514,97.0992608 216.594763,97.311919 L216.630408,97.311919 C216.790732,96.8784203 216.921568,96.5551797 217.010925,96.3425215 L219.476788,90.8667139 L220.638266,90.8667139 L220.638266,98.7472203 L220.631866,98.7472203 Z" fill="#000000"></path>
		</g>
	</g>
</svg>
