<?xml version="1.0" standalone="no"?>
<!DOCTYPE svg PUBLIC "-//W3C//DTD SVG 20010904//EN"
 "http://www.w3.org/TR/2001/REC-SVG-20010904/DTD/svg10.dtd">
<svg version="1.0" xmlns="http://www.w3.org/2000/svg"
 width="15px" height="15px" viewBox="0 0 225.000000 225.000000"
 preserveAspectRatio="xMidYMid meet">

<g transform="translate(0.000000,225.000000) scale(0.100000,-0.100000)"
fill="#000000" stroke="none">
<path d="M995 2180 l-120 -70 -230 0 -231 0 -11 30 c-24 64 -131 91 -198 50
-88 -55 -79 -201 15 -240 l30 -13 -2 -255 -3 -256 -106 -61 c-58 -33 -114 -66
-123 -74 -13 -11 -16 -37 -16 -166 0 -132 2 -154 18 -167 26 -22 250 -148 263
-148 7 0 64 30 127 66 l115 66 68 -68 69 -68 0 -97 0 -97 -109 -62 c-60 -33
-114 -67 -120 -74 -8 -9 -11 -65 -9 -167 l3 -153 90 -53 c50 -29 113 -65 141
-80 l51 -27 137 79 136 79 -2 164 -3 165 -122 70 -123 69 0 87 0 87 58 55
c106 101 83 99 213 24 63 -36 119 -65 124 -65 6 0 61 30 124 65 l115 66 68
-68 69 -68 -3 -99 -3 -98 -112 -65 -113 -65 0 -162 0 -162 137 -78 137 -79 51
27 c27 14 91 50 140 79 l90 53 3 153 c2 100 -1 158 -8 166 -6 8 -65 44 -131
81 l-119 68 0 86 0 86 80 73 80 72 113 -65 c63 -36 119 -66 126 -66 13 0 237
126 264 148 15 13 17 35 17 167 0 129 -3 155 -16 166 -9 8 -65 41 -123 74
l-106 61 -3 256 -2 255 30 13 c36 15 68 56 76 99 10 47 -20 116 -60 141 -68
41 -175 14 -199 -50 l-11 -30 -230 0 -229 0 -122 70 c-67 39 -126 70 -131 70
-5 0 -63 -32 -129 -70z m240 -68 l100 -57 3 -120 3 -120 -103 -59 c-57 -33
-107 -59 -113 -59 -5 0 -56 26 -113 59 l-103 59 3 120 3 120 100 57 c55 32
104 58 110 58 6 0 55 -26 110 -58z m-902 10 c27 -24 19 -80 -14 -105 -53 -38
-125 18 -104 80 18 51 75 63 118 25z m1690 -4 c53 -62 -31 -149 -96 -98 -45
36 -33 103 23 123 23 8 53 -2 73 -25z m-1171 -214 l3 -137 117 -66 117 -66 1
-105 0 -105 -120 -68 -120 -68 0 -143 0 -142 -42 -40 c-24 -21 -58 -53 -76
-69 l-32 -29 -70 69 -70 69 0 142 0 142 -122 69 -123 70 -3 251 -2 252 40 25
c21 14 46 38 55 55 l16 30 214 0 214 0 3 -136z m993 106 c9 -17 34 -41 55 -55
l40 -25 -2 -251 -3 -251 -122 -71 -123 -72 0 -140 0 -139 -67 -68 c-37 -38
-72 -68 -77 -68 -6 0 -41 30 -78 67 l-68 67 0 143 0 142 -120 68 -120 68 0
105 1 105 117 66 117 66 3 137 3 136 214 0 214 0 16 -30z m-562 -733 l57 -32
0 -120 0 -120 -104 -59 c-57 -32 -107 -59 -111 -59 -4 0 -54 27 -111 59 l-104
59 0 120 0 120 108 61 107 61 50 -28 c28 -16 76 -44 108 -62z m-892 27 l99
-56 0 -123 0 -123 -99 -56 c-54 -31 -104 -56 -110 -56 -6 0 -56 26 -111 57
l-100 57 0 121 0 121 98 56 c53 31 103 57 110 57 8 1 59 -24 113 -55z m1689
-1 l100 -57 0 -121 0 -121 -100 -57 c-55 -31 -105 -57 -111 -57 -6 0 -56 25
-110 56 l-99 56 0 123 0 123 98 56 c53 30 103 55 110 56 7 0 57 -26 112 -57z
m-1225 -833 l60 -35 0 -120 0 -119 -100 -58 c-55 -32 -104 -58 -109 -58 -5 0
-56 26 -112 57 l-104 58 0 120 0 121 107 61 107 61 46 -26 c25 -14 72 -42 105
-62z m838 5 l67 -39 0 -121 0 -120 -95 -53 c-52 -30 -102 -56 -112 -58 -10 -2
-63 22 -118 54 l-100 58 -3 117 -3 116 38 24 c21 14 70 43 108 65 l70 41 40
-23 c22 -12 70 -40 108 -61z"/>
<path d="M1048 2054 l-68 -34 0 -85 0 -84 63 -36 c35 -19 72 -35 82 -35 10 0
47 16 82 35 l63 36 0 84 0 85 -70 35 c-38 19 -73 35 -77 35 -5 -1 -38 -17 -75
-36z m160 -116 c3 -34 0 -39 -38 -63 l-41 -26 -42 23 c-38 21 -42 27 -42 63 0
36 4 42 40 62 l40 22 40 -22 c34 -19 40 -28 43 -59z"/>
<path d="M1043 1243 l-63 -35 0 -83 0 -83 65 -36 c36 -20 72 -36 80 -36 8 0
44 16 80 36 l65 36 0 83 0 83 -65 36 c-36 20 -73 36 -83 35 -9 0 -45 -16 -79
-36z m162 -118 c0 -36 -4 -42 -40 -62 l-40 -22 -40 22 c-36 20 -40 26 -40 62
0 36 4 42 40 62 l40 22 40 -22 c36 -20 40 -26 40 -62z"/>
<path d="M211 1250 c-82 -45 -81 -44 -81 -126 l0 -74 45 -29 c86 -54 100 -57
157 -30 93 43 98 50 98 133 0 57 -4 76 -17 88 -23 20 -119 68 -135 68 -7 0
-37 -14 -67 -30z m110 -62 c35 -20 39 -25 39 -63 0 -38 -4 -43 -39 -63 l-38
-22 -42 23 c-37 20 -41 25 -41 62 0 36 4 42 38 61 20 12 39 22 41 23 2 1 21
-9 42 -21z"/>
<path d="M1905 1253 c-82 -42 -85 -47 -85 -129 0 -83 5 -90 98 -133 57 -27 71
-24 157 30 l45 29 0 74 c0 83 -3 87 -97 135 -52 26 -57 26 -118 -6z m108 -68
c34 -17 37 -22 37 -59 0 -38 -4 -43 -41 -63 l-42 -23 -38 22 c-35 20 -39 25
-39 63 0 37 4 43 38 63 20 12 39 20 42 19 3 -1 22 -11 43 -22z"/>
<path d="M625 436 l-60 -33 0 -87 0 -87 67 -36 67 -37 52 25 c95 44 99 50 99
139 l0 78 -64 36 c-35 20 -73 36 -83 36 -10 0 -45 -15 -78 -34z m115 -56 c37
-19 40 -23 40 -63 0 -40 -3 -45 -38 -65 l-38 -21 -39 22 c-35 20 -40 28 -43
62 -2 37 0 42 35 62 46 27 37 27 83 3z"/>
<path d="M1463 434 l-63 -36 0 -83 0 -83 75 -38 74 -39 68 37 68 37 0 88 0 88
-60 32 c-33 18 -69 32 -80 32 -11 0 -48 -16 -82 -35z m128 -56 c37 -21 39 -26
37 -63 -3 -34 -8 -42 -43 -62 l-39 -22 -38 21 c-35 20 -38 25 -38 65 0 39 3
44 38 62 46 25 36 25 83 -1z"/>
</g>
</svg>
