<?xml version="1.0" encoding="utf-8"?>
<!-- Generator: Adobe Illustrator 24.1.1, SVG Export Plug-In . SVG Version: 6.00 Build 0)  -->
<svg version="1.1" id="Layer_1" xmlns="http://www.w3.org/2000/svg" xmlns:xlink="http://www.w3.org/1999/xlink" x="0px" y="0px"
	 viewBox="0 0 512 512" height="15" width="15" style="enable-background:new 0 0 512 512;" xml:space="preserve">
<style type="text/css">
	.st0{fill:#FF3E00;}
	.st1{fill:#FFFFFF;}
</style>
<g>
	<path class="st0" d="M441.9,67.7c-47.5-68-141.4-88.2-209.3-45l-119.2,76c-32.6,20.5-55,53.8-61.8,91.6
		c-5.7,31.6-0.7,64.1,14.2,92.5c-10.2,15.5-17.2,32.9-20.5,51.1c-6.9,38.6,2.1,78.3,24.9,110.2c47.6,68.1,141.5,88.2,209.3,45
		l119.2-76c32.6-20.5,55-53.7,61.8-91.6c5.7-31.6,0.7-64.1-14.2-92.5c10.2-15.5,17.2-32.9,20.5-51.1
		C473.6,139.4,464.7,99.6,441.9,67.7"/>
	<path class="st1" d="M220.9,450.7c-38.4,10-79-5.1-101.7-37.7c-13.7-19.2-19.1-43.1-15-66.3c0.7-3.8,1.6-7.5,2.9-11.1l2.2-6.9
		l6.1,4.5c14.1,10.4,29.9,18.3,46.7,23.3l4.4,1.3l-0.4,4.4c-0.5,6.3,1.2,12.6,4.8,17.7c6.8,9.8,19,14.4,30.6,11.4
		c2.6-0.7,5.1-1.8,7.3-3.2l119.3-76c5.9-3.7,10-9.7,11.2-16.6c1.2-7-0.4-14.2-4.5-20c-6.8-9.8-19-14.4-30.6-11.4
		c-2.6,0.7-5.1,1.8-7.3,3.2l-45.5,29c-7.5,4.8-15.7,8.3-24.2,10.6c-38.4,10-79-5.1-101.7-37.7c-13.7-19.2-19.1-43.1-15-66.3
		c4.1-22.8,17.6-42.8,37.2-55.1l119.3-76c7.5-4.8,15.7-8.4,24.2-10.6c38.4-10,79,5.1,101.7,37.7c13.7,19.2,19.1,43.1,15,66.3
		c-0.7,3.8-1.6,7.5-2.9,11.1l-2.2,6.8l-6.1-4.5c-14.1-10.4-29.9-18.3-46.7-23.3l-4.4-1.3l0.4-4.4c0.5-6.3-1.2-12.6-4.8-17.7
		c-6.8-9.8-19-14.4-30.6-11.4c-2.6,0.7-5.1,1.8-7.3,3.2l-119.3,76c-5.9,3.7-10,9.7-11.2,16.6c-1.2,7,0.4,14.2,4.5,20
		c6.8,9.8,19,14.4,30.6,11.4c2.6-0.7,5.1-1.8,7.3-3.2l45.5-29c7.5-4.8,15.6-8.4,24.2-10.6c38.4-10,79,5.1,101.7,37.7
		c13.7,19.2,19.1,43.1,15,66.3c-4.1,22.8-17.6,42.8-37.2,55.1l-119.3,76C237.6,444.8,229.4,448.4,220.9,450.7"/>
</g>
</svg>
